<svg width="384" height="68" viewBox="0 0 384 68" fill="none" xmlns="http://www.w3.org/2000/svg">
<g clip-path="url(#clip0_2100_60)">
<path d="M1.93828 32.6113C2.95781 32.6113 3.72539 32.5586 4.24101 32.4531C4.75664 32.3359 5.01445 32.0547 5.01445 31.6094V10.4629H1.93828V9.0918H16.0359L19.2703 19.498L22.6805 9.0918H37.3758V10.4629H34.2996V32.6113H37.3758V34H19.6043V32.6113H22.6805V14.1543L16.1941 34H12.9598L6.50859 14.3828V31.5215C6.50859 32.0137 6.76054 32.3184 7.26445 32.4355C7.78008 32.5527 8.55351 32.6113 9.58476 32.6113V34H1.93828V32.6113ZM42.498 24.2266C42.498 22.7148 42.7734 21.3203 43.3242 20.043C43.875 18.7656 44.7012 17.6641 45.8027 16.7383C46.9043 15.8008 48.2871 15.0742 49.9512 14.5586C51.6152 14.0312 53.5605 13.7676 55.7871 13.7676C58.0137 13.7676 59.9531 14.0312 61.6055 14.5586C63.2695 15.0742 64.6523 15.8008 65.7539 16.7383C66.8555 17.6641 67.6816 18.7656 68.2324 20.043C68.7832 21.3203 69.0586 22.7148 69.0586 24.2266C69.0586 25.7383 68.7832 27.1328 68.2324 28.4102C67.6816 29.6758 66.8555 30.7773 65.7539 31.7148C64.6523 32.6406 63.2695 33.3672 61.6055 33.8945C59.9531 34.4102 58.0137 34.668 55.7871 34.668C53.5605 34.668 51.6152 34.4102 49.9512 33.8945C48.2871 33.3672 46.9043 32.6406 45.8027 31.7148C44.7012 30.7773 43.875 29.6758 43.3242 28.4102C42.7734 27.1328 42.498 25.7383 42.498 24.2266ZM55.7871 33.5781C56.2324 33.5781 56.6133 33.4316 56.9297 33.1387C57.2461 32.8457 57.5039 32.3418 57.7031 31.627C57.9023 30.9121 58.043 29.957 58.125 28.7617C58.2187 27.5547 58.2656 26.043 58.2656 24.2266C58.2656 22.3984 58.2187 20.8867 58.125 19.6914C58.043 18.4844 57.9023 17.5234 57.7031 16.8086C57.5039 16.0938 57.2461 15.5898 56.9297 15.2969C56.6133 15.0039 56.2324 14.8574 55.7871 14.8574C55.3301 14.8574 54.9434 15.0039 54.6269 15.2969C54.3105 15.5898 54.0527 16.0938 53.8535 16.8086C53.6543 17.5234 53.5078 18.4844 53.4141 19.6914C53.332 20.8867 53.291 22.3984 53.291 24.2266C53.291 26.043 53.332 27.5547 53.4141 28.7617C53.5078 29.957 53.6543 30.9121 53.8535 31.627C54.0527 32.3418 54.3105 32.8457 54.6269 33.1387C54.9434 33.4316 55.3301 33.5781 55.7871 33.5781ZM73.8469 32.7344H76.923V15.7012H73.8469V14.4355H87.382V16.6855C87.757 16.2285 88.2023 15.8242 88.718 15.4727C89.2336 15.1094 89.8019 14.8047 90.423 14.5586C91.0559 14.3008 91.7297 14.1074 92.4445 13.9785C93.1711 13.8379 93.9211 13.7676 94.6945 13.7676C95.5031 13.7676 96.2297 13.8672 96.8742 14.0664C97.5187 14.2656 98.0695 14.541 98.5266 14.8926C98.9836 15.2324 99.3293 15.6426 99.5637 16.123C99.8098 16.5918 99.9328 17.1016 99.9328 17.6523C99.9328 18.1797 99.798 18.6777 99.5285 19.1465C99.2707 19.6152 98.9074 20.0254 98.4387 20.377C97.9816 20.7285 97.4426 21.0098 96.8215 21.2207C96.2004 21.4199 95.5383 21.5195 94.8352 21.5195C94.132 21.5195 93.4699 21.4199 92.8488 21.2207C92.2277 21.0098 91.6828 20.7285 91.2141 20.377C90.757 20.0254 90.3937 19.6152 90.1242 19.1465C89.8547 18.6777 89.7199 18.1797 89.7199 17.6523C89.7199 17.3828 89.7551 17.1191 89.8254 16.8613C89.9074 16.5918 90.0129 16.3398 90.1418 16.1055C89.8957 16.2227 89.6086 16.4043 89.2805 16.6504C88.9641 16.8848 88.6652 17.1777 88.384 17.5293C88.1027 17.8809 87.8625 18.291 87.6633 18.7598C87.4758 19.2168 87.382 19.7148 87.382 20.2539V32.7344H90.7922V34H73.8469V32.7344ZM103.649 24.0332C103.649 22.4629 103.971 21.0449 104.616 19.7793C105.26 18.5137 106.151 17.4355 107.287 16.5449C108.436 15.6543 109.789 14.9687 111.348 14.4883C112.918 14.0078 114.618 13.7676 116.446 13.7676C117.852 13.7676 119.123 13.9082 120.26 14.1895C121.409 14.4707 122.422 14.8574 123.301 15.3496C124.192 15.8301 124.954 16.4043 125.586 17.0723C126.231 17.7402 126.758 18.4609 127.168 19.2344C127.59 20.0078 127.901 20.8223 128.1 21.6777C128.299 22.5215 128.399 23.3711 128.399 24.2266H114.301C114.301 26.0195 114.377 27.4785 114.53 28.6035C114.694 29.7285 114.946 30.6133 115.286 31.2578C115.637 31.8906 116.082 32.3242 116.621 32.5586C117.172 32.793 117.834 32.9102 118.608 32.9102C119.592 32.9102 120.518 32.7871 121.385 32.541C122.252 32.2949 123.026 31.9492 123.705 31.5039C124.397 31.0469 124.971 30.502 125.428 29.8691C125.885 29.2246 126.196 28.5039 126.36 27.707H128.012C127.895 28.7969 127.561 29.7754 127.01 30.6426C126.459 31.498 125.727 32.2246 124.813 32.8223C123.911 33.4199 122.844 33.877 121.614 34.1934C120.395 34.5098 119.059 34.668 117.606 34.668C115.321 34.668 113.305 34.4336 111.559 33.9648C109.825 33.4844 108.371 32.793 107.2 31.8906C106.028 30.9766 105.143 29.8633 104.545 28.5508C103.948 27.2266 103.649 25.7207 103.649 24.0332ZM119.241 22.4512C119.205 20.9863 119.135 19.7676 119.03 18.7949C118.924 17.8223 118.772 17.043 118.573 16.457C118.373 15.8711 118.127 15.4609 117.834 15.2266C117.541 14.9805 117.19 14.8574 116.78 14.8574C116.37 14.8574 116.012 14.9805 115.707 15.2266C115.414 15.4609 115.168 15.8711 114.969 16.457C114.77 17.043 114.618 17.8223 114.512 18.7949C114.407 19.7676 114.342 20.9863 114.319 22.4512H119.241ZM148.54 32.6113C149.559 32.6113 150.327 32.5586 150.843 32.4531C151.358 32.3359 151.616 32.0547 151.616 31.6094V10.4629H148.54V9.0918H162.637L165.872 19.498L169.282 9.0918H183.977V10.4629H180.901V32.6113H183.977V34H166.206V32.6113H169.282V14.1543L162.796 34H159.561L153.11 14.3828V31.5215C153.11 32.0137 153.362 32.3184 153.866 32.4355C154.382 32.5527 155.155 32.6113 156.186 32.6113V34H148.54V32.6113ZM189.1 24.2266C189.1 22.7148 189.375 21.3203 189.926 20.043C190.477 18.7656 191.303 17.6641 192.404 16.7383C193.506 15.8008 194.889 15.0742 196.553 14.5586C198.217 14.0312 200.162 13.7676 202.389 13.7676C204.615 13.7676 206.555 14.0312 208.207 14.5586C209.871 15.0742 211.254 15.8008 212.355 16.7383C213.457 17.6641 214.283 18.7656 214.834 20.043C215.385 21.3203 215.66 22.7148 215.66 24.2266C215.66 25.7383 215.385 27.1328 214.834 28.4102C214.283 29.6758 213.457 30.7773 212.355 31.7148C211.254 32.6406 209.871 33.3672 208.207 33.8945C206.555 34.4102 204.615 34.668 202.389 34.668C200.162 34.668 198.217 34.4102 196.553 33.8945C194.889 33.3672 193.506 32.6406 192.404 31.7148C191.303 30.7773 190.477 29.6758 189.926 28.4102C189.375 27.1328 189.1 25.7383 189.1 24.2266ZM202.389 33.5781C202.834 33.5781 203.215 33.4316 203.531 33.1387C203.848 32.8457 204.105 32.3418 204.305 31.627C204.504 30.9121 204.645 29.957 204.727 28.7617C204.82 27.5547 204.867 26.043 204.867 24.2266C204.867 22.3984 204.82 20.8867 204.727 19.6914C204.645 18.4844 204.504 17.5234 204.305 16.8086C204.105 16.0938 203.848 15.5898 203.531 15.2969C203.215 15.0039 202.834 14.8574 202.389 14.8574C201.932 14.8574 201.545 15.0039 201.229 15.2969C200.912 15.5898 200.654 16.0938 200.455 16.8086C200.256 17.5234 200.109 18.4844 200.016 19.6914C199.934 20.8867 199.893 22.3984 199.893 24.2266C199.893 26.043 199.934 27.5547 200.016 28.7617C200.109 29.957 200.256 30.9121 200.455 31.627C200.654 32.3418 200.912 32.8457 201.229 33.1387C201.545 33.4316 201.932 33.5781 202.389 33.5781ZM220.448 32.7344H223.525V15.7012H220.448V14.4355H233.984V16.6855C234.359 16.2285 234.804 15.8242 235.32 15.4727C235.835 15.1094 236.404 14.8047 237.025 14.5586C237.657 14.3008 238.331 14.1074 239.046 13.9785C239.773 13.8379 240.523 13.7676 241.296 13.7676C242.105 13.7676 242.831 13.8672 243.476 14.0664C244.12 14.2656 244.671 14.541 245.128 14.8926C245.585 15.2324 245.931 15.6426 246.165 16.123C246.411 16.5918 246.534 17.1016 246.534 17.6523C246.534 18.1797 246.4 18.6777 246.13 19.1465C245.872 19.6152 245.509 20.0254 245.04 20.377C244.583 20.7285 244.044 21.0098 243.423 21.2207C242.802 21.4199 242.14 21.5195 241.437 21.5195C240.734 21.5195 240.071 21.4199 239.45 21.2207C238.829 21.0098 238.284 20.7285 237.816 20.377C237.359 20.0254 236.995 19.6152 236.726 19.1465C236.456 18.6777 236.321 18.1797 236.321 17.6523C236.321 17.3828 236.357 17.1191 236.427 16.8613C236.509 16.5918 236.614 16.3398 236.743 16.1055C236.497 16.2227 236.21 16.4043 235.882 16.6504C235.566 16.8848 235.267 17.1777 234.986 17.5293C234.704 17.8809 234.464 18.291 234.265 18.7598C234.077 19.2168 233.984 19.7148 233.984 20.2539V32.7344H237.394V34H220.448V32.7344ZM250.25 24.0332C250.25 22.4629 250.573 21.0449 251.217 19.7793C251.862 18.5137 252.752 17.4355 253.889 16.5449C255.037 15.6543 256.391 14.9687 257.95 14.4883C259.52 14.0078 261.219 13.7676 263.047 13.7676C264.454 13.7676 265.725 13.9082 266.862 14.1895C268.01 14.4707 269.024 14.8574 269.903 15.3496C270.793 15.8301 271.555 16.4043 272.188 17.0723C272.832 17.7402 273.36 18.4609 273.77 19.2344C274.192 20.0078 274.502 20.8223 274.702 21.6777C274.901 22.5215 275 23.3711 275 24.2266H260.903C260.903 26.0195 260.979 27.4785 261.131 28.6035C261.295 29.7285 261.547 30.6133 261.887 31.2578C262.239 31.8906 262.684 32.3242 263.223 32.5586C263.774 32.793 264.436 32.9102 265.209 32.9102C266.194 32.9102 267.12 32.7871 267.987 32.541C268.854 32.2949 269.627 31.9492 270.307 31.5039C270.998 31.0469 271.573 30.502 272.03 29.8691C272.487 29.2246 272.797 28.5039 272.961 27.707H274.614C274.496 28.7969 274.162 29.7754 273.612 30.6426C273.061 31.498 272.329 32.2246 271.414 32.8223C270.512 33.4199 269.446 33.877 268.215 34.1934C266.996 34.5098 265.661 34.668 264.207 34.668C261.922 34.668 259.907 34.4336 258.161 33.9648C256.426 33.4844 254.973 32.793 253.801 31.8906C252.629 30.9766 251.745 29.8633 251.147 28.5508C250.549 27.2266 250.25 25.7207 250.25 24.0332ZM265.842 22.4512C265.807 20.9863 265.737 19.7676 265.631 18.7949C265.526 17.8223 265.373 17.043 265.174 16.457C264.975 15.8711 264.729 15.4609 264.436 15.2266C264.143 14.9805 263.791 14.8574 263.381 14.8574C262.971 14.8574 262.614 14.9805 262.309 15.2266C262.016 15.4609 261.77 15.8711 261.571 16.457C261.371 17.043 261.219 17.8223 261.114 18.7949C261.008 19.7676 260.944 20.9863 260.92 22.4512H265.842ZM295.563 22.1348C295.563 20.1895 295.874 18.3789 296.495 16.7031C297.116 15.0273 298.048 13.5801 299.29 12.3613C300.544 11.1309 302.102 10.1699 303.966 9.47852C305.829 8.77539 308.003 8.42383 310.487 8.42383C312.292 8.42383 313.968 8.69922 315.514 9.25C317.061 9.80078 318.491 10.6914 319.804 11.9219L321.966 8.6875H323.179V20.0957H321.807C321.386 18.2324 320.811 16.6855 320.085 15.4551C319.37 14.2246 318.579 13.2461 317.712 12.5195C316.856 11.7812 315.96 11.2656 315.022 10.9727C314.096 10.668 313.218 10.5156 312.386 10.5156C311.987 10.5156 311.589 10.5508 311.19 10.6211C310.804 10.6797 310.429 10.8262 310.065 11.0605C309.702 11.2832 309.362 11.6113 309.046 12.0449C308.729 12.4785 308.454 13.0703 308.22 13.8203C307.997 14.5586 307.815 15.4727 307.675 16.5625C307.546 17.6523 307.481 18.9648 307.481 20.5C307.481 22.1055 307.528 23.5176 307.622 24.7363C307.727 25.9551 307.88 27.0098 308.079 27.9004C308.29 28.791 308.542 29.5293 308.835 30.1152C309.139 30.7012 309.491 31.1699 309.889 31.5215C310.3 31.873 310.757 32.125 311.261 32.2773C311.764 32.418 312.315 32.4883 312.913 32.4883C314.085 32.4883 315.18 32.3125 316.2 31.9609C317.22 31.5977 318.122 31.0293 318.907 30.2559C319.692 29.4824 320.337 28.4863 320.841 27.2676C321.356 26.0488 321.69 24.584 321.843 22.873H323.389C323.296 24.5254 322.997 26.0664 322.493 27.4961C322.001 28.9258 321.245 30.1738 320.225 31.2402C319.206 32.3066 317.893 33.1445 316.288 33.7539C314.682 34.3633 312.725 34.668 310.417 34.668C308.167 34.668 306.128 34.3633 304.3 33.7539C302.471 33.1445 300.907 32.2891 299.606 31.1875C298.317 30.0742 297.321 28.75 296.618 27.2148C295.915 25.6797 295.563 23.9863 295.563 22.1348ZM330.076 29.3945C330.076 28.4922 330.246 27.7188 330.586 27.0742C330.926 26.418 331.406 25.8672 332.027 25.4219C332.648 24.9648 333.393 24.6016 334.26 24.332C335.127 24.0508 336.088 23.834 337.143 23.6816C338.209 23.5293 339.352 23.4297 340.57 23.3828C341.789 23.3242 343.055 23.2949 344.367 23.2949V22.3105C344.367 20.8105 344.262 19.6094 344.051 18.707C343.852 17.8047 343.541 17.1133 343.119 16.6328C342.709 16.1523 342.199 15.8418 341.59 15.7012C340.98 15.5488 340.271 15.4727 339.463 15.4727C339.029 15.4727 338.566 15.5078 338.074 15.5781C337.594 15.6484 337.166 15.7305 336.791 15.8242C337.33 15.8828 337.828 16.0176 338.285 16.2285C338.742 16.4395 339.135 16.7031 339.463 17.0195C339.791 17.3359 340.043 17.6875 340.219 18.0742C340.406 18.4609 340.5 18.8535 340.5 19.252C340.5 19.7441 340.377 20.207 340.131 20.6406C339.885 21.0742 339.545 21.4551 339.111 21.7832C338.678 22.0996 338.174 22.3516 337.6 22.5391C337.025 22.7266 336.41 22.8203 335.754 22.8203C335.098 22.8203 334.482 22.7266 333.908 22.5391C333.346 22.3516 332.848 22.0996 332.414 21.7832C331.992 21.4551 331.658 21.0742 331.412 20.6406C331.166 20.207 331.043 19.7441 331.043 19.252C331.043 18.5957 331.219 18.0039 331.57 17.4766C331.934 16.9492 332.42 16.4863 333.029 16.0879C333.65 15.6777 334.377 15.3262 335.209 15.0332C336.053 14.7402 336.955 14.5 337.916 14.3125C338.877 14.125 339.873 13.9902 340.904 13.9082C341.947 13.8145 342.984 13.7676 344.016 13.7676C345.844 13.7676 347.432 13.8965 348.779 14.1543C350.139 14.4004 351.264 14.8457 352.154 15.4902C353.057 16.123 353.73 16.9961 354.176 18.1094C354.621 19.2109 354.844 20.6113 354.844 22.3105V29.6758C354.844 30.5547 354.932 31.2344 355.107 31.7148C355.295 32.1836 355.635 32.418 356.127 32.418C356.373 32.418 356.572 32.3418 356.725 32.1895C356.889 32.0254 357.012 31.8145 357.094 31.5566C357.188 31.2988 357.252 31 357.287 30.6602C357.322 30.3203 357.34 29.9746 357.34 29.623V27.8828H358.904V29.623C358.904 30.5605 358.781 31.3516 358.535 31.9961C358.301 32.6406 357.885 33.1621 357.287 33.5605C356.701 33.959 355.91 34.2402 354.914 34.4043C353.93 34.5801 352.688 34.668 351.188 34.668C350.426 34.668 349.711 34.627 349.043 34.5449C348.387 34.4629 347.783 34.3223 347.232 34.123C346.693 33.9238 346.225 33.6602 345.826 33.332C345.428 33.0039 345.111 32.5938 344.877 32.1016C344.525 32.6406 344.057 33.0801 343.471 33.4199C342.885 33.748 342.252 34.0059 341.572 34.1934C340.893 34.3809 340.207 34.5039 339.516 34.5625C338.824 34.6328 338.191 34.668 337.617 34.668C336.246 34.668 335.08 34.5215 334.119 34.2285C333.158 33.9473 332.379 33.5664 331.781 33.0859C331.184 32.6055 330.75 32.0488 330.48 31.416C330.211 30.7715 330.076 30.0977 330.076 29.3945ZM340.219 29.2012C340.219 30.0684 340.377 30.7715 340.693 31.3105C341.01 31.8379 341.531 32.1016 342.258 32.1016C342.867 32.1016 343.371 31.8848 343.77 31.4512C344.168 31.0059 344.367 30.4141 344.367 29.6758V24.9121C343.523 24.9121 342.832 24.9883 342.293 25.1406C341.754 25.293 341.326 25.5391 341.01 25.8789C340.705 26.207 340.494 26.6465 340.377 27.1973C340.271 27.748 340.219 28.416 340.219 29.2012ZM365.433 15.7012H362.357V14.4355H365.433C366.616 14.4355 367.677 14.2363 368.614 13.8379C369.564 13.4277 370.366 12.9004 371.023 12.2559C371.691 11.5996 372.2 10.8672 372.552 10.0586C372.904 9.25 373.079 8.44141 373.079 7.63281H375.892V14.4355H381.552V15.7012H375.892V26.5293C375.892 27.7832 375.956 28.8086 376.085 29.6055C376.226 30.3906 376.419 31.0059 376.665 31.4512C376.923 31.8965 377.222 32.2012 377.562 32.3652C377.913 32.5176 378.3 32.5938 378.722 32.5938C379.132 32.5938 379.53 32.5059 379.917 32.3301C380.304 32.1426 380.644 31.8496 380.937 31.4512C381.23 31.041 381.464 30.5137 381.64 29.8691C381.816 29.2129 381.904 28.4102 381.904 27.4609C381.904 27.2383 381.898 27.0098 381.886 26.7754C381.874 26.5293 381.857 26.2773 381.833 26.0195H383.31C383.345 26.6055 383.362 27.1387 383.362 27.6191C383.362 29.084 383.157 30.2793 382.747 31.2051C382.349 32.1191 381.775 32.834 381.025 33.3496C380.275 33.8652 379.361 34.2168 378.282 34.4043C377.216 34.5918 376.015 34.6855 374.679 34.6855C373.179 34.6855 371.855 34.5391 370.706 34.2461C369.558 33.9531 368.591 33.4902 367.806 32.8574C367.021 32.2129 366.429 31.3867 366.03 30.3789C365.632 29.3711 365.433 28.1465 365.433 26.7051V15.7012Z" fill="white"/>
<path d="M156.15 54.44H165.09V55.475H156.15V54.44ZM157.245 61.16H163.92V62.135H157.245V61.16ZM157.23 64.415H163.905V65.435H157.23V64.415ZM158.28 52.58H159.345V57.32H158.28V52.58ZM161.88 52.58H162.96V57.32H161.88V52.58ZM160.035 58.46H161.085V64.925H160.035V58.46ZM156.75 57.98H164.475V66.11H163.38V59H157.8V66.2H156.75V57.98ZM152.415 53.78H155.595V62.51H152.415V61.415H154.56V54.86H152.415V53.78ZM151.845 53.78H152.865V63.68H151.845V53.78ZM180.285 63.035H185.91V63.83H180.285V63.035ZM180.285 64.865H185.88V65.69H180.285V64.865ZM179.76 61.235H186.51V66.215H185.415V62.06H180.81V66.215H179.76V61.235ZM180.435 57.47V58.445H185.775V57.47H180.435ZM180.435 55.82V56.765H185.775V55.82H180.435ZM179.43 55.07H186.81V59.18H179.43V55.07ZM182.505 55.385H183.48V58.835H182.505V55.385ZM181.185 53.345H184.095V54.17H180.585L181.185 53.345ZM181.2 52.4L182.25 52.58C181.89 53.24 181.45 53.905 180.93 54.575C180.41 55.235 179.775 55.85 179.025 56.42C178.945 56.3 178.83 56.18 178.68 56.06C178.53 55.93 178.395 55.83 178.275 55.76C178.975 55.26 179.57 54.71 180.06 54.11C180.55 53.5 180.93 52.93 181.2 52.4ZM179.715 59.21L180.525 59.585C180.335 59.965 180.1 60.355 179.82 60.755C179.55 61.155 179.23 61.495 178.86 61.775L178.125 61.145C178.465 60.925 178.77 60.635 179.04 60.275C179.32 59.905 179.545 59.55 179.715 59.21ZM181.305 59.6L182.1 59.36C182.21 59.6 182.31 59.86 182.4 60.14C182.49 60.42 182.55 60.66 182.58 60.86L181.755 61.16C181.725 60.95 181.67 60.7 181.59 60.41C181.51 60.11 181.415 59.84 181.305 59.6ZM183.255 59.6L183.99 59.315C184.16 59.525 184.32 59.77 184.47 60.05C184.63 60.32 184.745 60.555 184.815 60.755L184.035 61.115C183.975 60.915 183.865 60.675 183.705 60.395C183.555 60.105 183.405 59.84 183.255 59.6ZM185.25 59.54L186.015 59.09C186.335 59.39 186.66 59.73 186.99 60.11C187.33 60.48 187.585 60.81 187.755 61.1L186.96 61.61C186.85 61.42 186.7 61.205 186.51 60.965C186.32 60.725 186.115 60.48 185.895 60.23C185.675 59.98 185.46 59.75 185.25 59.54ZM183.765 53.345H184.005L184.185 53.3L184.845 53.75C184.635 54.12 184.39 54.49 184.11 54.86C183.83 55.22 183.56 55.53 183.3 55.79C183.23 55.69 183.135 55.58 183.015 55.46C182.895 55.34 182.79 55.245 182.7 55.175C182.9 54.955 183.1 54.69 183.3 54.38C183.5 54.06 183.655 53.775 183.765 53.525V53.345ZM174.975 54.095H178.11V62.12H174.975V61.1H177.12V55.13H174.975V54.095ZM174.375 54.095H175.32V63.425H174.375V54.095ZM201.15 54.44H210.09V55.475H201.15V54.44ZM202.245 61.16H208.92V62.135H202.245V61.16ZM202.23 64.415H208.905V65.435H202.23V64.415ZM203.28 52.58H204.345V57.32H203.28V52.58ZM206.88 52.58H207.96V57.32H206.88V52.58ZM205.035 58.46H206.085V64.925H205.035V58.46ZM201.75 57.98H209.475V66.11H208.38V59H202.8V66.2H201.75V57.98ZM197.415 53.78H200.595V62.51H197.415V61.415H199.56V54.86H197.415V53.78ZM196.845 53.78H197.865V63.68H196.845V53.78ZM225.285 63.035H230.91V63.83H225.285V63.035ZM225.285 64.865H230.88V65.69H225.285V64.865ZM224.76 61.235H231.51V66.215H230.415V62.06H225.81V66.215H224.76V61.235ZM225.435 57.47V58.445H230.775V57.47H225.435ZM225.435 55.82V56.765H230.775V55.82H225.435ZM224.43 55.07H231.81V59.18H224.43V55.07ZM227.505 55.385H228.48V58.835H227.505V55.385ZM226.185 53.345H229.095V54.17H225.585L226.185 53.345ZM226.2 52.4L227.25 52.58C226.89 53.24 226.45 53.905 225.93 54.575C225.41 55.235 224.775 55.85 224.025 56.42C223.945 56.3 223.83 56.18 223.68 56.06C223.53 55.93 223.395 55.83 223.275 55.76C223.975 55.26 224.57 54.71 225.06 54.11C225.55 53.5 225.93 52.93 226.2 52.4ZM224.715 59.21L225.525 59.585C225.335 59.965 225.1 60.355 224.82 60.755C224.55 61.155 224.23 61.495 223.86 61.775L223.125 61.145C223.465 60.925 223.77 60.635 224.04 60.275C224.32 59.905 224.545 59.55 224.715 59.21ZM226.305 59.6L227.1 59.36C227.21 59.6 227.31 59.86 227.4 60.14C227.49 60.42 227.55 60.66 227.58 60.86L226.755 61.16C226.725 60.95 226.67 60.7 226.59 60.41C226.51 60.11 226.415 59.84 226.305 59.6ZM228.255 59.6L228.99 59.315C229.16 59.525 229.32 59.77 229.47 60.05C229.63 60.32 229.745 60.555 229.815 60.755L229.035 61.115C228.975 60.915 228.865 60.675 228.705 60.395C228.555 60.105 228.405 59.84 228.255 59.6ZM230.25 59.54L231.015 59.09C231.335 59.39 231.66 59.73 231.99 60.11C232.33 60.48 232.585 60.81 232.755 61.1L231.96 61.61C231.85 61.42 231.7 61.205 231.51 60.965C231.32 60.725 231.115 60.48 230.895 60.23C230.675 59.98 230.46 59.75 230.25 59.54ZM228.765 53.345H229.005L229.185 53.3L229.845 53.75C229.635 54.12 229.39 54.49 229.11 54.86C228.83 55.22 228.56 55.53 228.3 55.79C228.23 55.69 228.135 55.58 228.015 55.46C227.895 55.34 227.79 55.245 227.7 55.175C227.9 54.955 228.1 54.69 228.3 54.38C228.5 54.06 228.655 53.775 228.765 53.525V53.345ZM219.975 54.095H223.11V62.12H219.975V61.1H222.12V55.13H219.975V54.095ZM219.375 54.095H220.32V63.425H219.375V54.095Z" fill="white"/>
<path d="M287 59H365" stroke="#D9D9D9"/>
<path d="M19 59H97" stroke="#D9D9D9"/>
</g>
<defs>
<clipPath id="clip0_2100_60">
<rect width="384" height="68" fill="white"/>
</clipPath>
</defs>
</svg>
