<svg width="261" height="232" viewBox="0 0 261 232" fill="none" xmlns="http://www.w3.org/2000/svg">
<g filter="url(#filter0_d_2112_104)">
<ellipse cx="130" cy="80.9016" rx="126" ry="80.9016" fill="#EED9CD"/>
</g>
<g filter="url(#filter1_d_2112_104)">
<rect x="4" y="54.4918" width="253" height="169.508" rx="42" fill="#EED9CD"/>
</g>
<path d="M86.7155 40.0023C86.6149 40.0133 86.5151 40.0302 86.4165 40.053C83.1567 40.1875 80.0742 41.5749 77.811 43.9264C75.5478 46.2779 74.2782 49.4123 74.2667 52.677V141.399H54.0101V143.934H54V154.074C54.0108 157.346 55.2855 160.487 57.5576 162.839C59.8296 165.192 62.923 166.575 66.1904 166.698C66.3472 166.73 66.5067 166.747 66.6667 166.749H135.057V184.838L148.042 177.233L160.4 185V166.749H173.067C176.32 166.736 179.444 165.471 181.791 163.216C184.138 160.961 185.528 157.889 185.673 154.637C185.714 154.452 185.734 154.263 185.733 154.074V65.3516H206V52.677C205.988 49.4212 204.724 46.2951 202.47 43.9467C200.216 41.5983 197.146 40.2077 193.896 40.0632C193.711 40.022 193.522 40.0016 193.333 40.0023H86.9739C86.9604 40.0022 86.9468 40.0022 86.9333 40.0023C86.8607 39.9992 86.7881 39.9992 86.7155 40.0023ZM86.9333 45.0722C86.9468 45.0723 86.9604 45.0723 86.9739 45.0722C87.9711 45.0681 88.9593 45.2623 89.881 45.6436C90.8026 46.0248 91.6394 46.5855 92.3427 47.293C93.046 48.0005 93.6018 48.8408 93.9779 49.765C94.3539 50.6893 94.5427 51.6791 94.5333 52.677V62.8167H94.5637V65.3516H180.667V113.338C180.665 113.397 180.665 113.456 180.667 113.515V154.074C180.667 158.333 177.323 161.679 173.067 161.679H160.4V149.876C160.988 149.876 161.717 149.876 162.518 149.927C163.379 149.927 164.281 149.977 165.102 149.927C165.507 149.927 165.897 149.861 166.338 149.775C166.779 149.689 167.316 149.709 168.127 148.887C168.942 148.061 168.927 147.519 169.008 147.072C169.094 146.631 169.11 146.246 169.13 145.835C169.155 144.98 169.148 144.125 169.11 143.27C169.079 142.408 169.039 141.556 169.039 140.953V140.852C169.074 140.852 169.079 140.801 169.12 140.801C169.637 140.497 170.386 140.101 171.146 139.686C171.906 139.27 172.682 138.844 173.376 138.398C173.727 138.177 174.061 137.93 174.374 137.658C174.708 137.354 175.179 137.1 175.473 135.985C175.762 134.864 175.478 134.408 175.331 133.982C175.191 133.588 175.02 133.204 174.82 132.836C174.411 132.084 173.975 131.346 173.513 130.626C173.057 129.891 172.606 129.181 172.307 128.654C172.286 128.603 172.286 128.603 172.266 128.578C172.286 128.527 172.281 128.517 172.307 128.476C172.601 127.949 173.041 127.234 173.492 126.499C173.943 125.759 174.394 125.008 174.769 124.278C174.957 123.913 175.129 123.548 175.276 123.123C175.418 122.697 175.696 122.235 175.392 121.12C175.088 120.005 174.612 119.751 174.278 119.457C173.956 119.186 173.614 118.94 173.254 118.722C172.524 118.277 171.779 117.857 171.02 117.465C170.255 117.059 169.5 116.669 168.978 116.369C168.942 116.369 168.937 116.319 168.902 116.319V116.217C168.892 115.614 168.917 114.767 168.942 113.9C168.971 113.046 168.967 112.19 168.932 111.335C168.917 110.92 168.87 110.506 168.79 110.098C168.704 109.657 168.725 109.12 167.899 108.308C167.078 107.497 166.541 107.507 166.1 107.426C165.689 107.348 165.272 107.301 164.854 107.284C164.033 107.234 163.156 107.289 162.29 107.335C161.429 107.386 160.577 107.406 159.974 107.406H159.868L159.817 107.315C159.508 106.798 159.123 106.047 158.708 105.287C158.306 104.531 157.877 103.79 157.421 103.066C157.2 102.711 156.953 102.374 156.681 102.057C156.377 101.723 156.124 101.261 154.999 100.967C153.879 100.673 153.423 100.967 152.998 101.099C152.605 101.239 152.223 101.41 151.858 101.611C151.103 102.019 150.365 102.455 149.643 102.919C148.909 103.381 148.21 103.827 147.683 104.126C147.642 104.126 147.632 104.176 147.597 104.176C147.556 104.176 147.546 104.126 147.505 104.126C146.84 103.745 146.181 103.353 145.529 102.95C144.802 102.493 144.059 102.063 143.3 101.662C142.93 101.466 142.546 101.3 142.15 101.165C141.729 101.023 141.268 100.749 140.154 101.048V101.059C139.039 101.363 138.786 101.829 138.492 102.169C138.221 102.485 137.975 102.823 137.757 103.178C137.321 103.872 136.906 104.658 136.501 105.424C136.095 106.184 135.705 106.929 135.401 107.452C135.381 107.502 135.376 107.502 135.35 107.543H135.249C134.641 107.543 133.815 107.543 132.949 107.492C132.087 107.492 131.186 107.441 130.365 107.492C129.959 107.492 129.569 107.558 129.129 107.644C128.688 107.736 128.151 107.72 127.34 108.547C126.529 109.368 126.539 109.905 126.458 110.346C126.386 110.758 126.345 111.175 126.337 111.594C126.306 112.415 126.327 113.297 126.357 114.159C126.387 115.021 126.428 115.862 126.428 116.466V116.577C126.393 116.577 126.387 116.628 126.347 116.628C125.83 116.932 125.08 117.328 124.32 117.743C123.56 118.159 122.795 118.585 122.101 119.031C121.746 119.252 121.409 119.499 121.093 119.771C120.758 120.076 120.287 120.329 119.993 121.444C119.705 122.565 119.988 123.021 120.135 123.447C120.282 123.873 120.459 124.233 120.647 124.598C121.032 125.323 121.498 126.063 121.954 126.793C122.41 127.528 122.861 128.248 123.16 128.77L123.201 128.862C123.185 128.912 123.18 128.912 123.16 128.943C122.866 129.47 122.425 130.195 121.974 130.935C121.522 131.658 121.096 132.397 120.698 133.151C120.499 133.521 120.33 133.905 120.191 134.302C120.049 134.727 119.77 135.184 120.074 136.299C120.378 137.414 120.855 137.668 121.189 137.962C121.534 138.256 121.863 138.479 122.213 138.697C122.907 139.138 123.682 139.549 124.447 139.954C125.212 140.36 125.967 140.75 126.489 141.055C126.524 141.055 126.529 141.105 126.565 141.105V141.207C126.575 141.815 126.55 142.652 126.524 143.518C126.504 144.38 126.494 145.263 126.534 146.084C126.56 146.489 126.585 146.89 126.676 147.331C126.762 147.772 126.742 148.31 127.568 149.121C128.394 149.932 128.926 149.922 129.367 150.003C129.807 150.084 130.203 150.119 130.613 150.135C131.434 150.185 132.321 150.135 133.187 150.084C133.886 150.043 134.504 150.033 135.057 150.023V161.679H76.7189C78.4023 159.5 79.3212 156.828 79.3333 154.074V52.677C79.3333 48.4183 82.6773 45.0722 86.9333 45.0722ZM96.9957 45.0722H193.333C197.589 45.0722 200.933 48.4183 200.933 52.677V60.2817H183.595C183.451 60.2591 183.305 60.2489 183.159 60.2513C183.034 60.2521 182.909 60.2623 182.785 60.2817H99.6V52.677C99.6 49.8176 98.6069 47.2015 96.9957 45.0722ZM89.4667 75.4913V80.5611H170.533V75.4913H89.4667ZM89.4667 90.7008V95.7707H170.533V90.7008H89.4667ZM89.4667 105.91V110.98H119.867V105.91H89.4667ZM153.55 106.504C153.778 106.894 153.986 107.249 154.244 107.72C154.649 108.461 155.07 109.231 155.47 109.91C155.673 110.25 155.875 110.575 156.103 110.889C156.337 111.203 156.478 111.528 157.269 111.979H157.284C158.079 112.435 158.429 112.374 158.814 112.415C159.204 112.466 159.574 112.466 159.964 112.476C160.755 112.476 161.631 112.425 162.467 112.395H163.876C163.876 112.851 163.886 113.272 163.876 113.814C163.85 114.651 163.825 115.518 163.835 116.309C163.835 116.704 163.85 117.074 163.891 117.465C163.942 117.855 163.891 118.21 164.357 119.001C164.823 119.792 165.147 119.939 165.467 120.167C165.786 120.4 166.105 120.583 166.445 120.785C167.129 121.181 167.914 121.586 168.654 121.982C169.13 122.235 169.49 122.438 169.88 122.666C169.657 123.057 169.449 123.422 169.17 123.883C168.73 124.598 168.279 125.343 167.894 126.033C167.696 126.377 167.514 126.702 167.357 127.062C167.205 127.417 166.987 127.711 166.992 128.623C166.992 129.546 167.215 129.83 167.377 130.195C167.539 130.55 167.721 130.869 167.919 131.209C168.314 131.893 168.77 132.639 169.216 133.348C169.505 133.81 169.713 134.17 169.941 134.555C169.55 134.783 169.196 135.001 168.725 135.265C167.985 135.66 167.215 136.076 166.536 136.482C166.203 136.672 165.88 136.879 165.568 137.1C165.249 137.333 164.919 137.475 164.469 138.266C164.013 139.067 164.063 139.432 164.023 139.823C163.982 140.213 163.972 140.588 163.972 140.984C163.972 141.774 164.013 142.641 164.043 143.478C164.063 144.02 164.058 144.441 164.063 144.897H162.655C161.819 144.897 160.942 144.832 160.152 144.837C159.757 144.837 159.392 144.837 159.007 144.903C158.617 144.953 158.262 144.908 157.471 145.359H157.461C156.671 145.82 156.534 146.14 156.301 146.459C156.077 146.778 155.869 147.108 155.678 147.448C155.283 148.132 154.877 148.908 154.482 149.648C154.229 150.125 154.031 150.484 153.808 150.875C153.418 150.652 153.048 150.459 152.582 150.17C151.868 149.734 151.133 149.273 150.444 148.887C150.106 148.692 149.76 148.513 149.405 148.35C149.046 148.198 148.762 147.98 147.84 147.985C146.928 147.985 146.639 148.213 146.279 148.37C145.925 148.533 145.59 148.71 145.251 148.903C144.567 149.298 143.842 149.775 143.133 150.221C142.677 150.51 142.302 150.708 141.917 150.931C141.689 150.545 141.481 150.19 141.223 149.714C140.817 148.979 140.397 148.218 139.997 147.534C139.802 147.199 139.59 146.874 139.363 146.56C139.13 146.246 138.993 145.911 138.198 145.46C137.397 145.004 137.053 145.055 136.658 145.014C136.267 144.963 135.898 144.963 135.502 144.963C134.712 144.963 133.835 145.009 132.999 145.024H131.591C131.591 144.568 131.581 144.162 131.591 143.625C131.616 142.788 131.642 141.921 131.631 141.131C131.633 140.741 131.614 140.352 131.576 139.965C131.525 139.574 131.576 139.219 131.11 138.428C130.643 137.637 130.309 137.501 129.99 137.272C129.677 137.05 129.354 136.842 129.022 136.649C128.338 136.253 127.553 135.853 126.813 135.457C126.337 135.204 125.977 134.991 125.587 134.763C125.81 134.372 126.018 134.007 126.296 133.546C126.737 132.831 127.188 132.096 127.573 131.407C127.771 131.062 127.953 130.727 128.11 130.367C128.262 130.012 128.48 129.723 128.475 128.806C128.475 127.888 128.252 127.609 128.09 127.249C127.927 126.897 127.746 126.554 127.548 126.22C127.153 125.536 126.697 124.801 126.251 124.091C125.962 123.635 125.744 123.27 125.516 122.884C125.906 122.656 126.271 122.438 126.742 122.18C127.482 121.779 128.252 121.368 128.931 120.963C129.27 120.76 129.59 120.557 129.899 120.329C130.218 120.096 130.547 119.949 130.998 119.148C131.454 118.352 131.403 118.007 131.444 117.617C131.485 117.226 131.495 116.856 131.495 116.456C131.495 115.665 131.454 114.798 131.424 113.961C131.403 113.419 131.409 112.998 131.403 112.542H132.812C133.648 112.542 134.525 112.598 135.315 112.592C135.71 112.592 136.075 112.603 136.46 112.537C136.85 112.486 137.215 112.527 138.005 112.07C138.796 111.609 138.933 111.289 139.166 110.97C139.394 110.651 139.591 110.321 139.789 109.981C140.184 109.297 140.589 108.521 140.985 107.781C141.238 107.305 141.435 106.945 141.658 106.554V106.575C142.049 106.798 142.418 106.99 142.885 107.279C143.599 107.715 144.334 108.177 145.023 108.562C145.367 108.755 145.702 108.927 146.061 109.079C146.421 109.236 146.71 109.459 147.627 109.454C148.539 109.454 148.828 109.226 149.187 109.069C149.542 108.907 149.877 108.729 150.216 108.537C150.9 108.141 151.625 107.665 152.334 107.218C152.79 106.929 153.165 106.732 153.55 106.509V106.504ZM147.673 116.932C146.305 116.932 145.808 117.627 145.479 117.992C145.198 118.304 144.952 118.646 144.744 119.011C144.354 119.692 143.999 120.392 143.68 121.11C143.346 121.825 143.037 122.529 142.793 123.021C142.778 123.072 142.768 123.072 142.758 123.092H142.697C142.155 123.178 141.4 123.27 140.63 123.376C139.855 123.47 139.085 123.605 138.325 123.782C137.917 123.872 137.521 124.008 137.144 124.187C136.703 124.4 135.918 124.674 135.502 126.002C135.087 127.325 135.568 128.015 135.806 128.446C136.05 128.877 136.288 129.171 136.541 129.465C137.048 130.053 137.615 130.601 138.183 131.138C138.755 131.68 139.318 132.203 139.708 132.588C139.733 132.588 139.733 132.639 139.758 132.639L139.748 132.705C139.662 133.252 139.52 134.007 139.383 134.783C139.234 135.56 139.124 136.343 139.054 137.13C139.029 137.521 139.003 137.896 139.064 138.388C139.125 138.88 139.145 139.726 140.26 140.537C141.375 141.349 142.165 141.095 142.646 140.994C143.128 140.892 143.482 140.75 143.832 140.598C144.541 140.294 145.23 139.919 145.909 139.534C146.593 139.158 147.257 138.763 147.743 138.509C147.769 138.509 147.774 138.509 147.804 138.459C147.83 138.459 147.835 138.459 147.86 138.509C148.351 138.758 149.015 139.133 149.704 139.508C150.388 139.878 151.087 140.254 151.802 140.548C152.157 140.695 152.511 140.831 152.987 140.923C153.469 141.014 154.269 141.267 155.369 140.441C156.483 139.615 156.483 138.773 156.539 138.281C156.584 137.863 156.584 137.442 156.539 137.024C156.461 136.239 156.342 135.459 156.185 134.687C156.033 133.911 155.881 133.156 155.789 132.608L155.779 132.537C155.799 132.537 155.805 132.487 155.83 132.487C156.215 132.091 156.772 131.569 157.335 131.021C157.892 130.474 158.459 129.911 158.956 129.318C159.204 129.019 159.442 128.735 159.675 128.299C159.914 127.863 160.385 127.163 159.954 125.845C159.523 124.527 158.728 124.268 158.282 124.06C157.905 123.887 157.511 123.755 157.107 123.665C156.346 123.499 155.576 123.373 154.801 123.29C154.026 123.188 153.271 123.112 152.729 123.031H152.663C152.648 122.981 152.648 122.981 152.633 122.97C152.379 122.479 152.06 121.769 151.721 121.059C151.39 120.345 151.023 119.647 150.621 118.97C150.411 118.612 150.163 118.277 149.882 117.972C149.547 117.612 149.046 116.932 147.673 116.942V116.932ZM89.4667 121.12V126.19H114.8V121.12H89.4667ZM147.723 124.395C147.865 124.699 148.007 125.003 148.149 125.287C148.311 125.602 148.468 125.896 148.655 126.2C148.843 126.499 148.914 126.793 149.623 127.31C150.333 127.822 150.637 127.807 150.981 127.893C151.321 127.974 151.65 128.03 151.994 128.081C152.309 128.132 152.643 128.167 152.967 128.208C152.729 128.436 152.476 128.669 152.258 128.892C152.011 129.141 151.774 129.4 151.549 129.668C151.326 129.941 151.087 130.104 150.819 130.945C150.555 131.787 150.667 132.071 150.692 132.426C150.718 132.781 150.763 133.115 150.819 133.47C150.87 133.784 150.946 134.109 151.006 134.438C150.718 134.281 150.429 134.114 150.145 133.972C149.84 133.812 149.527 133.666 149.208 133.536C148.883 133.404 148.645 133.217 147.774 133.222C146.902 133.222 146.659 133.414 146.34 133.546C146.016 133.683 145.717 133.84 145.408 134.002C145.129 134.149 144.845 134.317 144.557 134.479C144.617 134.149 144.678 133.81 144.724 133.495C144.779 133.146 144.82 132.811 144.845 132.456C144.866 132.101 144.982 131.822 144.703 130.986C144.43 130.144 144.171 129.972 143.943 129.703C143.718 129.443 143.481 129.193 143.234 128.953L142.52 128.268C142.844 128.218 143.178 128.182 143.487 128.132C143.837 128.076 144.156 128.02 144.501 127.929C144.84 127.848 145.139 127.848 145.843 127.33C146.548 126.803 146.629 126.514 146.811 126.21C146.994 125.906 147.141 125.607 147.298 125.287C147.434 125.008 147.586 124.699 147.723 124.395ZM59.0667 146.469H74.2667V154.074C74.2667 158.333 70.9227 161.679 66.6667 161.679C62.4107 161.679 59.0667 158.333 59.0667 154.074V146.469ZM89.4667 146.469V151.539H119.867V146.469H89.4667ZM150.267 154.657C150.9 155.042 151.543 155.438 152.167 155.757C152.531 155.945 152.886 156.112 153.317 156.254C153.742 156.396 154.209 156.68 155.323 156.371H155.333V175.829L148.129 171.301L140.123 175.996V156.289C140.255 156.34 140.301 156.406 140.468 156.452C141.587 156.746 142.043 156.452 142.469 156.32C142.895 156.173 143.244 156 143.609 155.808C144.131 155.534 144.668 155.189 145.2 154.855V164.214H150.267V154.657Z" fill="black"/>
<defs>
<filter id="filter0_d_2112_104" x="0" y="0" width="260" height="169.803" filterUnits="userSpaceOnUse" color-interpolation-filters="sRGB">
<feFlood flood-opacity="0" result="BackgroundImageFix"/>
<feColorMatrix in="SourceAlpha" type="matrix" values="0 0 0 0 0 0 0 0 0 0 0 0 0 0 0 0 0 0 127 0" result="hardAlpha"/>
<feOffset dy="4"/>
<feGaussianBlur stdDeviation="2"/>
<feComposite in2="hardAlpha" operator="out"/>
<feColorMatrix type="matrix" values="0 0 0 0 0 0 0 0 0 0 0 0 0 0 0 0 0 0 0.25 0"/>
<feBlend mode="normal" in2="BackgroundImageFix" result="effect1_dropShadow_2112_104"/>
<feBlend mode="normal" in="SourceGraphic" in2="effect1_dropShadow_2112_104" result="shape"/>
</filter>
<filter id="filter1_d_2112_104" x="0" y="54.4918" width="261" height="177.508" filterUnits="userSpaceOnUse" color-interpolation-filters="sRGB">
<feFlood flood-opacity="0" result="BackgroundImageFix"/>
<feColorMatrix in="SourceAlpha" type="matrix" values="0 0 0 0 0 0 0 0 0 0 0 0 0 0 0 0 0 0 127 0" result="hardAlpha"/>
<feOffset dy="4"/>
<feGaussianBlur stdDeviation="2"/>
<feComposite in2="hardAlpha" operator="out"/>
<feColorMatrix type="matrix" values="0 0 0 0 0 0 0 0 0 0 0 0 0 0 0 0 0 0 0.25 0"/>
<feBlend mode="normal" in2="BackgroundImageFix" result="effect1_dropShadow_2112_104"/>
<feBlend mode="normal" in="SourceGraphic" in2="effect1_dropShadow_2112_104" result="shape"/>
</filter>
</defs>
</svg>
